<?xml version="1.0" encoding="UTF-8" standalone="no"?>
<svg
   xmlns:dc="http://purl.org/dc/elements/1.1/"
   xmlns:cc="http://creativecommons.org/ns#"
   xmlns:rdf="http://www.w3.org/1999/02/22-rdf-syntax-ns#"
   xmlns:svg="http://www.w3.org/2000/svg"
   xmlns="http://www.w3.org/2000/svg"
   width="75mm"
   height="120mm"
   viewBox="0 0 75 120"
   version="1.1"
   id="svg8">
  <metadata
     id="metadata844">
    <rdf:RDF>
      <cc:Work
         rdf:about="">
        <dc:format>image/svg+xml</dc:format>
        <dc:type
           rdf:resource="http://purl.org/dc/dcmitype/StillImage" />
        <dc:title></dc:title>
      </cc:Work>
    </rdf:RDF>
  </metadata>
  <defs
     id="defs842" />
  <g
     id="layer1">
    <rect
       style="fill:#2e80c0;stroke-width:0.686056"
       id="MobileBorder"
       width="75"
       height="120"
       x="0"
       y="0"
       rx="7"
       ry="7" />
    <rect
       style="fill:#333333;stroke-width:0.711628"
       id="MobileScreen"
       width="65"
       height="104.91412"
       x="5"
       y="5"
       rx="2"
       ry="1" />
    <g
       id="AndroidGroup">
      <path
         d="m 22.499997,50.000034 0.0025,23.609981 c 0,2.152496 1.739999,3.89 3.892498,3.89 h 1.105001 v 8.854995 c 0,2.009996 1.767495,3.64499 3.775001,3.64499 2.014998,0 3.724998,-1.634994 3.724998,-3.647496 v -8.852489 h 5.000003 v 8.854995 c 0,2.009996 1.767496,3.64499 3.777496,3.64499 2.014998,0 3.722503,-1.634994 3.722503,-3.647496 v -8.852489 l 1.110001,-0.0025 c 2.144995,0 3.889991,-1.739999 3.889991,-3.892495 v -23.605 z M 62.5,53.67753 c 0,-2.012492 -1.737502,-3.677496 -3.75,-3.677496 -2.012504,-0.0025 -3.75,1.667499 -3.75,3.680001 v 15.264989 c 0,2.014996 1.73499,3.554993 3.75,3.554993 2.012498,0 3.75,-1.537502 3.75,-3.554993 z"
         id="Android"
         style="fill:#ececec;stroke-width:2.5" />
      <path
         d="m 44.877501,35.397549 2.349997,-4.647502 C 47.397482,30.42 47.180248,30 46.819971,30 c -0.164977,0 -0.32504,0.09496 -0.409985,0.262488 l -2.372494,4.694992 c -3.827499,-1.8425 -8.860006,-2.030002 -13.072506,0 L 28.589987,30.262488 C 28.507787,30.094961 28.347531,30 28.180003,30 c -0.36,0 -0.577512,0.42 -0.407527,0.750047 l 2.350006,4.647502 c -4.612498,2.584995 -7.622503,6.459991 -7.622503,12.099986 h 29.999999 c 0,-5.639995 -3.009998,-9.514991 -7.622496,-12.099986 z M 31.252504,42.50004 c -0.690048,0 -1.252508,-0.56003 -1.252508,-1.250001 0,-0.685039 0.562488,-1.249993 1.252508,-1.249993 0.690046,0 1.247499,0.565038 1.247499,1.249993 0,0.689951 -0.557481,1.250001 -1.247499,1.250001 z m 12.494994,0 c -0.690047,0 -1.247499,-0.56003 -1.247499,-1.250001 0,-0.685039 0.55748,-1.249993 1.247499,-1.249993 0.690047,0 1.252498,0.565038 1.252498,1.249993 0,0.689951 -0.562489,1.250001 -1.252498,1.250001 z"
         id="AndroidHead"
         style="display:inline;fill:#ececec;stroke-width:2.5" />
      <path
         d="m 20.000001,53.67753 c 0,-2.012492 -1.737506,-3.677496 -3.750002,-3.677496 C 14.237497,49.997534 12.5,51.667533 12.5,53.680035 v 15.264989 c 0,2.014996 1.735002,3.554993 3.749999,3.554993 2.012496,0 3.750002,-1.537502 3.750002,-3.554993 z"
         id="AndroidHand"
         style="display:inline;fill:#ececec;stroke-width:2.5" />
    </g>
  </g>
</svg>
