<?xml version="1.0" encoding="UTF-8" standalone="no"?>
<svg
   xmlns:dc="http://purl.org/dc/elements/1.1/"
   xmlns:cc="http://creativecommons.org/ns#"
   xmlns:rdf="http://www.w3.org/1999/02/22-rdf-syntax-ns#"
   xmlns:svg="http://www.w3.org/2000/svg"
   xmlns="http://www.w3.org/2000/svg"
   viewBox="0 0 162.94551 48.078587"
   version="1.1"
   id="svg8">
  <metadata
     id="metadata853">
    <rdf:RDF>
      <cc:Work
         rdf:about="">
        <dc:format>image/svg+xml</dc:format>
        <dc:type
           rdf:resource="http://purl.org/dc/dcmitype/StillImage" />
        <dc:title></dc:title>
      </cc:Work>
    </rdf:RDF>
  </metadata>
  <defs
     id="defs851" />
  <g
     id="CodeLayer1"
     transform="translate(-25.097619,-23.888081)">
    <g
       id="SQL_Group"
       transform="translate(-0.55486553)">
      <path
         d="m 188.04313,60.057199 v 4.92405 c 0,3.856305 -9.3252,6.985418 -20.03273,6.985418 -10.70546,0 -20.03271,-3.129113 -20.03271,-6.985418 v -4.92405 c 4.8439,3.481693 14.03289,4.519388 20.03271,4.519388 6.02187,0 15.20087,-1.047712 20.03273,-4.519388 z"
         id="SQL-4"
         style="display:inline;fill:#2d77c7;fill-opacity:1;stroke-width:2.00327" />
      <path
         d="m 168.0104,53.228034 c -6.02185,0 -15.20085,-1.047712 -20.03271,-4.519387 v 4.875971 c 0,3.858311 9.32725,6.985417 20.03271,6.985417 10.70753,0 20.03273,-3.129113 20.03273,-6.985417 v -4.875971 c -4.8439,3.481692 -14.03289,4.519387 -20.03273,4.519387 z"
         id="SQL-3"
         style="display:inline;fill:#2d77c7;fill-opacity:1;stroke-width:2.00327" />
      <path
         d="m 168.0104,41.867466 c -6.02185,0 -15.20085,-1.047712 -20.03271,-4.519388 v 4.887987 c 0,3.858311 9.32725,6.985425 20.03271,6.985425 10.70753,0 20.03273,-3.129121 20.03273,-6.985425 v -4.887987 c -4.8439,3.481692 -14.03289,4.519388 -20.03273,4.519388 z"
         id="SQL-2"
         style="display:inline;fill:#2d77c7;fill-opacity:1;stroke-width:2.00327" />
      <path
         d="m 168.0104,23.888081 c -10.70546,0 -20.03271,3.129113 -20.03271,6.987416 0,3.858311 9.32725,6.985417 20.03271,6.985417 10.70753,0 20.03273,-3.129113 20.03273,-6.985417 0,-3.858303 -9.3252,-6.987416 -20.03273,-6.987416 z"
         id="SQL-1"
         style="display:inline;fill:#2d77c7;fill-opacity:1;stroke-width:2.00327" />
    </g>
    <g
       id="GearsGroup">
      <path
         d="m 120.43056,44.899881 v -4.988805 c -2.54885,-0.90844 -4.15443,-1.16115 -4.96703,-3.117459 -0.81266,-1.960665 0.15233,-3.293918 1.30712,-5.718605 l -3.52487,-3.527023 c -2.40723,1.143727 -3.75354,2.121882 -5.72075,1.307109 -1.9607,-0.812589 -2.21554,-2.431224 -3.11746,-4.967017 h -4.988833 c -0.89758,2.522727 -1.15463,4.154436 -3.11748,4.967017 h -0.003 c -1.960718,0.814814 -3.28956,-0.152488 -5.718603,-1.307109 l -3.522646,3.527023 c 1.148033,2.41815 2.119692,3.755758 1.307109,5.718605 -0.816796,1.962847 -2.446507,2.219905 -4.969246,3.117459 v 4.986623 c 2.516239,0.897546 4.154432,1.156794 4.967015,3.11746 0.819263,1.978087 -0.176194,3.341846 -1.307109,5.718604 l 3.524877,3.527015 c 2.411593,-1.14372 3.755751,-2.121875 5.718603,-1.307111 h 0.003 c 1.96071,0.812591 2.21777,2.435589 3.11748,4.967019 h 4.986613 c 0.89756,-2.522718 1.15462,-4.150073 3.13056,-4.971374 h 0.003 c 1.94762,-0.810449 3.26996,0.154712 5.70559,1.311466 l 3.52479,-3.527015 c -1.14367,-2.41162 -2.12184,-3.753584 -1.30924,-5.718604 0.81431,-1.958492 2.45299,-2.219914 4.97138,-3.115278 z m -18.51742,3.679513 c -3.407213,0 -6.171693,-2.764537 -6.171693,-6.173916 0,-3.409378 2.76448,-6.173915 6.171693,-6.173915 3.40722,0 6.17171,2.764537 6.17171,6.173915 0,3.409379 -2.76449,6.173916 -6.17171,6.173916 z"
         id="BigGear"
         style="display:inline;fill:#003268;fill-opacity:1;stroke-width:2.17852" />
      <path
         d="m 135.68014,57.740057 v -2.34626 c -1.19817,-0.427003 -1.95412,-0.546805 -2.33756,-1.466146 -0.38369,-0.923689 0.0742,-1.548928 0.61423,-2.692646 l -1.66009,-1.660035 c -1.1328,0.540301 -1.76671,0.997768 -2.69046,0.616545 -0.92366,-0.381224 -1.04346,-1.143727 -1.46832,-2.337549 h -2.34408 c -0.42238,1.187292 -0.54425,1.954127 -1.46832,2.337549 -0.92366,0.383446 -1.54893,-0.07163 -2.69047,-0.616545 l -1.66001,1.660035 c 0.54013,1.139363 0.99778,1.768957 0.61424,2.692646 -0.3837,0.923688 -1.15026,1.043506 -2.33748,1.466146 v 2.34626 c 1.18508,0.420416 1.95412,0.544664 2.33748,1.466137 0.38534,0.930225 -0.0823,1.572895 -0.61424,2.692646 l 1.66001,1.660035 c 1.13502,-0.5403 1.76894,-0.997759 2.69047,-0.616544 0.92374,0.381223 1.04354,1.145901 1.46832,2.337548 h 2.34408 c 0.42238,-1.187292 0.54507,-1.954127 1.47268,-2.339731 h 0.003 c 0.91715,-0.381224 1.53798,0.07411 2.68386,0.618685 l 1.6601,-1.660033 c -0.53848,-1.135008 -0.99776,-1.76895 -0.61424,-2.690465 0.38369,-0.921516 1.15248,-1.04787 2.33756,-1.46832 z m -8.71403,1.72974 c -1.60337,0 -2.90398,-1.300571 -2.90398,-2.903965 0,-1.603386 1.30061,-2.903959 2.90398,-2.903959 1.60336,0 2.90397,1.300573 2.90397,2.903959 0,1.603394 -1.30061,2.903965 -2.90397,2.903965 z"
         id="MediumGear"
         style="display:inline;fill:#2d77c7;fill-opacity:1;stroke-width:2.17852" />
      <path
         d="M 118.25207,66.160019 V 64.39978 c -0.89757,-0.320211 -1.4662,-0.409547 -1.75372,-1.100154 -0.28735,-0.690566 0.0495,-1.161142 0.46191,-2.019479 l -1.24609,-1.243932 c -0.8475,0.405184 -1.32243,0.749437 -2.01735,0.461832 -0.69493,-0.287606 -0.78221,-0.858337 -1.10233,-1.753701 h -1.75807 c -0.31784,0.891009 -0.40923,1.466137 -1.10235,1.753701 -0.69081,0.287522 -1.16112,-0.0527 -2.01727,-0.461832 l -1.24609,1.243932 c 0.40756,0.856156 0.74927,1.326715 0.46191,2.019479 -0.28737,0.692788 -0.86266,0.782126 -1.75372,1.100154 v 1.760239 c 0.88884,0.315847 1.4662,0.409548 1.75372,1.100155 0.28982,0.697152 -0.0577,1.180754 -0.46191,2.019487 l 1.24609,1.243932 c 0.84965,-0.405184 1.32456,-0.749437 2.01727,-0.461831 0.69246,0.287604 0.78221,0.860518 1.10235,1.753709 h 1.75807 c 0.31782,-0.891017 0.40921,-1.466145 1.10455,-1.753709 h 0.003 c 0.68589,-0.285383 1.15249,0.05435 2.013,0.464054 l 1.24609,-1.243932 c -0.4051,-0.8518 -0.74927,-1.326714 -0.46191,-2.019479 0.28737,-0.692789 0.86488,-0.786407 1.75372,-1.102336 z m -6.53556,1.298399 c -1.20253,0 -2.17857,-0.973799 -2.17857,-2.178514 0,-1.204723 0.97604,-2.178522 2.17857,-2.178522 1.20255,0 2.17849,0.973799 2.17849,2.178522 0,1.204715 -0.97594,2.178514 -2.17849,2.178514 z"
         id="SmallGear"
         style="display:inline;fill:#1a5798;fill-opacity:1;stroke-width:2.17852" />
    </g>
    <g
       id="CodeGroup"
       transform="translate(14.2875)">
      <path
         d="M 54.743549,35.869931 V 67.821524 H 14.804071 V 35.869931 Z"
         id="path184"
         style="display:inline;fill:#2d77c7;fill-opacity:1;stroke-width:1.99697" />
      <path
         d="m 36.770782,45.854805 v 3.293011 l 6.448232,2.697911 -6.448232,2.689926 v 3.300997 l 9.984873,-4.39534 v -3.193165 z"
         id="RightArrow"
         style="display:inline;fill:#ffffff;stroke-width:1.99697" />
      <path
         d="m 22.791964,50.250145 v 3.193164 l 9.984874,4.393341 v -3.300997 l -6.448233,-2.689926 6.448233,-2.697911 v -3.293011 z"
         id="LeftArrow"
         style="display:inline;fill:#ffffff;stroke-width:1.99697" />
      <path
         d="M 54.743549,35.869931 V 67.821524 H 14.804071 V 35.869931 Z M 58.7375,23.888086 H 10.810119 V 71.815471 H 58.7375 Z"
         id="CodeBorder"
         style="display:inline;fill:#003268;fill-opacity:1;stroke-width:1.99697" />
    </g>
  </g>
</svg>
